<svg width="30" height="30" viewBox="0 0 30 30" fill="none" xmlns="http://www.w3.org/2000/svg"><rect width="30" height="30" rx="3" fill="#070B14"/><line x1="2" y1="8" x2="28" y2="8" stroke="#1E293B" stroke-width="0.5"/><line x1="2" y1="15" x2="28" y2="15" stroke="#1E293B" stroke-width="0.5"/><line x1="2" y1="22" x2="28" y2="22" stroke="#1E293B" stroke-width="0.5"/><line x1="8" y1="2" x2="8" y2="28" stroke="#1E293B" stroke-width="0.5"/><line x1="15" y1="2" x2="15" y2="28" stroke="#1E293B" stroke-width="0.5"/><line x1="22" y1="2" x2="22" y2="28" stroke="#1E293B" stroke-width="0.5"/><rect x="5" y="6" width="20" height="18" rx="1.5" stroke="#00F0FF" stroke-width="0.9" fill="#0F172A" fill-opacity="0.7"/><circle cx="15" cy="15" r="4" stroke="#00F0FF" stroke-width="0.8" stroke-dasharray="1 1"/><line x1="15" y1="9" x2="15" y2="21" stroke="#00F0FF" stroke-width="0.7"/><line x1="9" y1="15" x2="21" y2="15" stroke="#00F0FF" stroke-width="0.7"/><path d="M5 10V6H9M21 6H25V10M25 20V24H21M9 24H5V20" stroke="#10B981" stroke-width="0.9"/></svg>