<svg width="30" height="30" viewBox="0 0 30 30" fill="none" xmlns="http://www.w3.org/2000/svg"><rect width="30" height="30" rx="3" fill="#070B14"/><rect x="3" y="4" width="7" height="6.5" rx="1" fill="#0F172A" stroke="#00F0FF" stroke-width="0.75"/><polygon points="5.5,6.5 8,7.25 5.5,8" fill="#00F0FF"/><rect x="11.5" y="4" width="7" height="6.5" rx="1" fill="#0F172A" stroke="#10B981" stroke-width="0.75"/><polygon points="14,6.5 16.5,7.25 14,8" fill="#10B981"/><rect x="20" y="4" width="7" height="6.5" rx="1" fill="#0F172A" stroke="#FFC107" stroke-width="0.75"/><polygon points="22.5,6.5 25,7.25 22.5,8" fill="#FFC107"/><rect x="3" y="12" width="7" height="6.5" rx="1" fill="#0F172A" stroke="#1E40AF" stroke-width="0.75"/><rect x="11.5" y="12" width="7" height="6.5" rx="1" fill="#0F172A" stroke="#1E40AF" stroke-width="0.75"/><rect x="20" y="12" width="7" height="6.5" rx="1" fill="#0F172A" stroke="#1E40AF" stroke-width="0.75"/><rect x="3" y="20" width="24" height="6" rx="1" fill="#141E33" stroke="#1E40AF" stroke-width="0.6"/><line x1="7" y1="20" x2="7" y2="26" stroke="#1E293B" stroke-width="0.75"/><line x1="11" y1="20" x2="11" y2="26" stroke="#1E293B" stroke-width="0.75"/><line x1="15" y1="20" x2="15" y2="26" stroke="#00F0FF" stroke-width="0.9"/><line x1="19" y1="20" x2="19" y2="26" stroke="#1E293B" stroke-width="0.75"/><line x1="23" y1="20" x2="23" y2="26" stroke="#1E293B" stroke-width="0.75"/></svg>