<svg width="1180" height="720" viewBox="0 0 1180 720" fill="none" xmlns="http://www.w3.org/2000/svg">
  <defs>
    <linearGradient id="panel" x1="0" y1="0" x2="1180" y2="720" gradientUnits="userSpaceOnUse"><stop stop-color="#0A1A2D"/><stop offset="1" stop-color="#0C2931"/></linearGradient>
    <linearGradient id="chart" x1="360" y1="0" x2="930" y2="0" gradientUnits="userSpaceOnUse"><stop stop-color="#258BFF"/><stop offset="1" stop-color="#45E6C2"/></linearGradient>
    <filter id="ds" x="-20%" y="-20%" width="140%" height="140%"><feDropShadow dx="0" dy="16" stdDeviation="18" flood-color="#000" flood-opacity=".32"/></filter>
  </defs>
  <rect width="1180" height="720" rx="30" fill="url(#panel)"/>
  <rect x="28" y="28" width="1124" height="64" rx="16" fill="#102B3A"/>
  <circle cx="62" cy="60" r="9" fill="#41E6C4"/>
  <text x="86" y="67" fill="white" font-family="Inter,Arial" font-size="21" font-weight="700">Insilos Operations Center</text>
  <text x="1015" y="67" fill="#98B9C5" font-family="Inter,Arial" font-size="14">LIVE · 08:42</text>

  <g filter="url(#ds)">
    <rect x="28" y="116" width="270" height="576" rx="20" fill="#0E2435" stroke="#25465A"/>
    <rect x="322" y="116" width="830" height="356" rx="20" fill="#0E2435" stroke="#25465A"/>
    <rect x="322" y="496" width="400" height="196" rx="20" fill="#0E2435" stroke="#25465A"/>
    <rect x="746" y="496" width="406" height="196" rx="20" fill="#0E2435" stroke="#25465A"/>
  </g>

  <text x="54" y="154" fill="#8FB4C3" font-family="Inter,Arial" font-size="13" letter-spacing="2">PRIORITY SIGNALS</text>
  <g font-family="Inter,Arial">
    <rect x="50" y="176" width="226" height="92" rx="15" fill="#163242"/>
    <circle cx="72" cy="202" r="7" fill="#FFB85A"/><text x="90" y="208" fill="white" font-size="15" font-weight="650">Pump P-204</text>
    <text x="70" y="236" fill="#A9C1CB" font-size="13">Bearing temperature drift</text><text x="70" y="257" fill="#FFCB83" font-size="12">Failure risk: 72%</text>
    <rect x="50" y="282" width="226" height="92" rx="15" fill="#163242"/>
    <circle cx="72" cy="308" r="7" fill="#42E6C3"/><text x="90" y="314" fill="white" font-size="15" font-weight="650">Shipment VN-882</text>
    <text x="70" y="342" fill="#A9C1CB" font-size="13">ETA recovery available</text><text x="70" y="363" fill="#74EBD2" font-size="12">Action ready</text>
    <rect x="50" y="388" width="226" height="92" rx="15" fill="#163242"/>
    <circle cx="72" cy="414" r="7" fill="#FF6D83"/><text x="90" y="420" fill="white" font-size="15" font-weight="650">Batch B-4108</text>
    <text x="70" y="448" fill="#A9C1CB" font-size="13">Deviation pattern detected</text><text x="70" y="469" fill="#FF9AAA" font-size="12">Review required</text>
  </g>

  <text x="348" y="154" fill="#8FB4C3" font-family="Inter,Arial" font-size="13" letter-spacing="2">NETWORK PERFORMANCE</text>
  <line x1="366" y1="420" x2="1110" y2="420" stroke="#2C4B5B"/>
  <line x1="366" y1="350" x2="1110" y2="350" stroke="#203C4C"/>
  <line x1="366" y1="280" x2="1110" y2="280" stroke="#203C4C"/>
  <line x1="366" y1="210" x2="1110" y2="210" stroke="#203C4C"/>
  <path d="M372 384C430 370 452 331 504 344C555 357 581 250 642 284C700 315 737 210 794 240C848 270 881 191 936 225C996 261 1021 164 1098 181" stroke="url(#chart)" stroke-width="7" stroke-linecap="round"/>
  <path d="M372 410C439 398 467 379 516 390C575 403 601 350 657 365C712 381 742 321 806 337C862 351 907 303 960 319C1015 335 1053 293 1098 298" stroke="#55788A" stroke-width="3" stroke-dasharray="7 9"/>
  <circle cx="1098" cy="181" r="9" fill="#45E6C2"/><circle cx="1098" cy="181" r="17" stroke="#45E6C2" stroke-opacity=".3"/>

  <text x="348" y="532" fill="#8FB4C3" font-family="Inter,Arial" font-size="13" letter-spacing="2">IMPACT</text>
  <text x="350" y="592" fill="white" font-family="Inter,Arial" font-size="42" font-weight="750">18.4%</text>
  <text x="350" y="620" fill="#9DB8C3" font-family="Inter,Arial" font-size="14">fewer critical exceptions</text>
  <rect x="350" y="646" width="330" height="12" rx="6" fill="#183747"/><rect x="350" y="646" width="238" height="12" rx="6" fill="url(#chart)"/>

  <text x="772" y="532" fill="#8FB4C3" font-family="Inter,Arial" font-size="13" letter-spacing="2">AI RECOMMENDATION</text>
  <text x="772" y="574" fill="white" font-family="Inter,Arial" font-size="18" font-weight="650">Reschedule WO-221 to 10:30</text>
  <text x="772" y="608" fill="#A7BFCA" font-family="Inter,Arial" font-size="14">Technician skill match: 96%</text>
  <text x="772" y="634" fill="#A7BFCA" font-family="Inter,Arial" font-size="14">Required part available at Site B</text>
  <rect x="772" y="652" width="130" height="28" rx="14" fill="#42E6C3"/><text x="837" y="672" fill="#09202A" text-anchor="middle" font-family="Inter,Arial" font-size="13" font-weight="750">REVIEW ACTION</text>
</svg>
